<svg xmlns="http://www.w3.org/2000/svg" xmlns:xlink="http://www.w3.org/1999/xlink" width="500" zoomAndPan="magnify" viewBox="0 0 375 374.999991" height="500" preserveAspectRatio="xMidYMid meet" version="1.0"><defs><g/><clipPath id="ee9ce03f78"><path d="M 71.429688 142.417969 L 160.679688 142.417969 L 160.679688 232.417969 L 71.429688 232.417969 Z M 71.429688 142.417969 " clip-rule="nonzero"/></clipPath></defs><g clip-path="url(#ee9ce03f78)"><path fill="#050a30" d="M 159.464844 142.625 L 153.648438 142.625 C 152.984375 142.625 152.445312 143.164062 152.445312 143.832031 L 152.445312 152.378906 L 148.640625 152.378906 L 148.640625 149.691406 C 148.640625 146.90625 146.382812 144.644531 143.605469 144.644531 L 138.292969 144.644531 L 138.292969 143.832031 C 138.292969 143.164062 137.753906 142.625 137.089844 142.625 L 131.269531 142.625 C 130.605469 142.625 130.066406 143.164062 130.066406 143.832031 L 130.066406 144.644531 L 88.164062 144.644531 C 85.574219 144.644531 83.464844 146.757812 83.464844 149.351562 L 83.464844 152.378906 L 79.660156 152.378906 L 79.660156 143.832031 C 79.660156 143.164062 79.121094 142.625 78.457031 142.625 L 72.640625 142.625 C 71.976562 142.625 71.4375 143.164062 71.4375 143.832031 L 71.4375 231.066406 C 71.4375 231.730469 71.976562 232.269531 72.640625 232.269531 L 78.457031 232.269531 C 79.121094 232.269531 79.660156 231.730469 79.660156 231.066406 L 79.660156 220.722656 L 130.066406 220.722656 L 130.066406 231.066406 C 130.066406 231.730469 130.605469 232.269531 131.269531 232.269531 L 137.089844 232.269531 C 137.75 232.269531 138.289062 231.730469 138.289062 231.066406 L 138.289062 220.722656 L 152.445312 220.722656 L 152.445312 231.066406 C 152.445312 231.730469 152.984375 232.269531 153.648438 232.269531 L 159.464844 232.269531 C 160.128906 232.269531 160.667969 231.730469 160.667969 231.066406 L 160.667969 143.832031 C 160.667969 143.164062 160.132812 142.625 159.464844 142.625 Z M 143.605469 147.054688 C 145.054688 147.054688 146.234375 148.238281 146.234375 149.691406 L 146.234375 152.378906 L 138.292969 152.378906 L 138.292969 147.054688 Z M 79.660156 212.480469 L 79.660156 160.621094 L 130.066406 160.621094 L 130.066406 204.742188 L 88.164062 204.742188 C 85.574219 204.742188 83.464844 206.855469 83.464844 209.453125 L 83.464844 212.480469 Z M 85.871094 209.453125 C 85.871094 208.1875 86.898438 207.15625 88.164062 207.15625 L 130.066406 207.15625 L 130.066406 212.480469 L 85.871094 212.480469 Z M 85.871094 149.351562 C 85.871094 148.085938 86.898438 147.054688 88.164062 147.054688 L 130.066406 147.054688 L 130.066406 152.378906 L 85.871094 152.378906 Z M 78.457031 218.3125 C 77.792969 218.3125 77.253906 218.851562 77.253906 219.515625 L 77.253906 229.859375 L 73.84375 229.859375 L 73.84375 145.035156 L 77.253906 145.035156 L 77.253906 153.585938 C 77.253906 154.25 77.792969 154.792969 78.457031 154.792969 L 130.066406 154.792969 L 130.066406 158.210938 L 78.457031 158.210938 C 77.792969 158.210938 77.253906 158.75 77.253906 159.417969 L 77.253906 213.6875 C 77.253906 214.351562 77.792969 214.890625 78.457031 214.890625 L 130.066406 214.890625 L 130.066406 218.3125 Z M 158.265625 229.859375 L 154.851562 229.859375 L 154.851562 219.515625 C 154.851562 218.851562 154.3125 218.3125 153.648438 218.3125 L 137.089844 218.3125 C 136.425781 218.3125 135.886719 218.851562 135.886719 219.515625 L 135.886719 229.859375 L 132.472656 229.859375 L 132.472656 145.035156 L 135.886719 145.035156 L 135.886719 153.585938 C 135.886719 154.25 136.425781 154.792969 137.089844 154.792969 L 153.648438 154.792969 C 154.3125 154.792969 154.851562 154.25 154.851562 153.585938 L 154.851562 145.035156 L 158.265625 145.035156 Z M 158.265625 229.859375 " fill-opacity="1" fill-rule="nonzero"/></g><path fill="#050a30" d="M 153.648438 203.285156 L 137.089844 203.285156 C 136.425781 203.285156 135.886719 203.828125 135.886719 204.492188 L 135.886719 213.6875 C 135.886719 214.351562 136.425781 214.890625 137.089844 214.890625 L 153.648438 214.890625 C 154.3125 214.890625 154.851562 214.351562 154.851562 213.6875 L 154.851562 204.492188 C 154.851562 203.828125 154.3125 203.285156 153.648438 203.285156 Z M 138.292969 212.480469 L 138.292969 207.15625 L 143.605469 207.15625 C 145.054688 207.15625 146.234375 208.335938 146.234375 209.789062 L 146.234375 212.480469 Z M 152.445312 212.480469 L 148.640625 212.480469 L 148.640625 209.789062 C 148.640625 208.105469 147.808594 206.613281 146.539062 205.695312 L 152.445312 205.695312 Z M 152.445312 212.480469 " fill-opacity="1" fill-rule="nonzero"/><path fill="#050a30" d="M 153.648438 173.234375 L 137.089844 173.234375 C 136.425781 173.234375 135.886719 173.777344 135.886719 174.441406 L 135.886719 183.636719 C 135.886719 184.300781 136.425781 184.839844 137.089844 184.839844 L 153.648438 184.839844 C 154.3125 184.839844 154.851562 184.300781 154.851562 183.636719 L 154.851562 174.441406 C 154.851562 173.777344 154.3125 173.234375 153.648438 173.234375 Z M 152.445312 182.429688 L 138.292969 182.429688 L 138.292969 175.648438 L 152.445312 175.648438 Z M 152.445312 182.429688 " fill-opacity="1" fill-rule="nonzero"/><path fill="#050a30" d="M 153.648438 158.210938 L 137.089844 158.210938 C 136.425781 158.210938 135.886719 158.75 135.886719 159.417969 L 135.886719 168.609375 C 135.886719 169.277344 136.425781 169.816406 137.089844 169.816406 L 153.648438 169.816406 C 154.3125 169.816406 154.851562 169.277344 154.851562 168.609375 L 154.851562 159.417969 C 154.851562 158.75 154.3125 158.210938 153.648438 158.210938 Z M 152.445312 167.40625 L 138.292969 167.40625 L 138.292969 160.621094 L 152.445312 160.621094 Z M 152.445312 167.40625 " fill-opacity="1" fill-rule="nonzero"/><path fill="#050a30" d="M 153.648438 188.261719 L 137.089844 188.261719 C 136.425781 188.261719 135.886719 188.800781 135.886719 189.46875 L 135.886719 198.660156 C 135.886719 199.328125 136.425781 199.867188 137.089844 199.867188 L 153.648438 199.867188 C 154.3125 199.867188 154.851562 199.328125 154.851562 198.660156 L 154.851562 189.46875 C 154.851562 188.800781 154.3125 188.261719 153.648438 188.261719 Z M 152.445312 197.457031 L 138.292969 197.457031 L 138.292969 190.671875 L 152.445312 190.671875 Z M 152.445312 197.457031 " fill-opacity="1" fill-rule="nonzero"/><g fill="#050a30" fill-opacity="1"><g transform="translate(169.294021, 168.330692)"><g><path d="M 8.59375 0 L -0.75 -22.28125 L 4.96875 -22.28125 L 10.578125 -7.640625 L 16.203125 -22.28125 L 21.921875 -22.28125 L 12.578125 0 Z M 8.59375 0 "/></g></g></g><g fill="#050a30" fill-opacity="1"><g transform="translate(193.16203, 168.330692)"><g><path d="M 21.765625 -12.46875 L 21.765625 -7.640625 C 21.179688 -4.992188 19.914062 -2.988281 17.96875 -1.625 C 16.03125 -0.269531 13.863281 0.40625 11.46875 0.40625 C 8.46875 0.40625 5.910156 -0.71875 3.796875 -2.96875 C 1.679688 -5.21875 0.625 -7.9375 0.625 -11.125 C 0.625 -14.363281 1.65625 -17.097656 3.71875 -19.328125 C 5.789062 -21.566406 8.375 -22.6875 11.46875 -22.6875 C 15.09375 -22.6875 17.957031 -21.414062 20.0625 -18.875 L 16.734375 -15.234375 C 15.546875 -17.140625 13.890625 -18.09375 11.765625 -18.09375 C 10.203125 -18.09375 8.867188 -17.410156 7.765625 -16.046875 C 6.660156 -14.691406 6.109375 -13.050781 6.109375 -11.125 C 6.109375 -9.226562 6.660156 -7.609375 7.765625 -6.265625 C 8.867188 -4.929688 10.203125 -4.265625 11.765625 -4.265625 C 13.066406 -4.265625 14.195312 -4.65625 15.15625 -5.4375 C 16.125 -6.21875 16.609375 -7.257812 16.609375 -8.5625 L 11.46875 -8.5625 L 11.46875 -12.46875 Z M 21.765625 -12.46875 "/></g></g></g><g fill="#050a30" fill-opacity="1"><g transform="translate(218.245035, 168.330692)"><g><path d="M 6.703125 -22.28125 L 6.703125 0 L 1.625 0 L 1.625 -22.28125 Z M 6.703125 -22.28125 "/></g></g></g><g fill="#050a30" fill-opacity="1"><g transform="translate(169.294021, 200.58069)"><g><path d="M 6.703125 -8.9375 L 6.703125 0 L 1.625 0 L 1.625 -22.28125 L 6.703125 -22.28125 L 6.703125 -13.390625 L 13.875 -13.390625 L 13.875 -22.28125 L 18.953125 -22.28125 L 18.953125 0 L 13.875 0 L 13.875 -8.9375 Z M 6.703125 -8.9375 "/></g></g></g><g fill="#050a30" fill-opacity="1"><g transform="translate(192.568024, 200.58069)"><g><path d="M 0.625 -11.15625 C 0.625 -14.375 1.71875 -17.097656 3.90625 -19.328125 C 6.101562 -21.566406 8.753906 -22.6875 11.859375 -22.6875 C 14.972656 -22.6875 17.617188 -21.570312 19.796875 -19.34375 C 21.972656 -17.125 23.0625 -14.394531 23.0625 -11.15625 C 23.0625 -7.894531 21.988281 -5.148438 19.84375 -2.921875 C 17.695312 -0.703125 15.035156 0.40625 11.859375 0.40625 C 8.597656 0.40625 5.910156 -0.691406 3.796875 -2.890625 C 1.679688 -5.097656 0.625 -7.851562 0.625 -11.15625 Z M 6.109375 -11.15625 C 6.109375 -9.976562 6.285156 -8.90625 6.640625 -7.9375 C 7.003906 -6.976562 7.632812 -6.164062 8.53125 -5.5 C 9.425781 -4.84375 10.535156 -4.515625 11.859375 -4.515625 C 13.742188 -4.515625 15.164062 -5.160156 16.125 -6.453125 C 17.09375 -7.742188 17.578125 -9.3125 17.578125 -11.15625 C 17.578125 -12.96875 17.085938 -14.523438 16.109375 -15.828125 C 15.128906 -17.140625 13.710938 -17.796875 11.859375 -17.796875 C 10.015625 -17.796875 8.59375 -17.140625 7.59375 -15.828125 C 6.601562 -14.523438 6.109375 -12.96875 6.109375 -11.15625 Z M 6.109375 -11.15625 "/></g></g></g><g fill="#050a30" fill-opacity="1"><g transform="translate(218.947026, 200.58069)"><g><path d="M 9.828125 -22.6875 C 11.035156 -22.6875 12.210938 -22.507812 13.359375 -22.15625 C 14.515625 -21.800781 15.375 -21.453125 15.9375 -21.109375 L 16.734375 -20.578125 L 14.6875 -16.53125 C 14.519531 -16.632812 14.289062 -16.769531 14 -16.9375 C 13.71875 -17.113281 13.179688 -17.34375 12.390625 -17.625 C 11.597656 -17.914062 10.859375 -18.0625 10.171875 -18.0625 C 9.328125 -18.0625 8.675781 -17.878906 8.21875 -17.515625 C 7.757812 -17.160156 7.53125 -16.675781 7.53125 -16.0625 C 7.53125 -15.757812 7.640625 -15.476562 7.859375 -15.21875 C 8.078125 -14.957031 8.445312 -14.675781 8.96875 -14.375 C 9.488281 -14.082031 9.945312 -13.84375 10.34375 -13.65625 C 10.738281 -13.476562 11.347656 -13.210938 12.171875 -12.859375 C 13.617188 -12.242188 14.847656 -11.410156 15.859375 -10.359375 C 16.878906 -9.304688 17.390625 -8.113281 17.390625 -6.78125 C 17.390625 -5.5 17.160156 -4.378906 16.703125 -3.421875 C 16.242188 -2.472656 15.613281 -1.726562 14.8125 -1.1875 C 14.007812 -0.644531 13.117188 -0.242188 12.140625 0.015625 C 11.171875 0.273438 10.117188 0.40625 8.984375 0.40625 C 8.015625 0.40625 7.0625 0.304688 6.125 0.109375 C 5.1875 -0.0859375 4.398438 -0.332031 3.765625 -0.625 C 3.140625 -0.925781 2.578125 -1.21875 2.078125 -1.5 C 1.578125 -1.789062 1.207031 -2.035156 0.96875 -2.234375 L 0.625 -2.53125 L 3.15625 -6.796875 C 3.375 -6.617188 3.671875 -6.390625 4.046875 -6.109375 C 4.421875 -5.835938 5.085938 -5.46875 6.046875 -5 C 7.015625 -4.53125 7.867188 -4.296875 8.609375 -4.296875 C 10.753906 -4.296875 11.828125 -5.023438 11.828125 -6.484375 C 11.828125 -6.785156 11.75 -7.066406 11.59375 -7.328125 C 11.4375 -7.585938 11.164062 -7.847656 10.78125 -8.109375 C 10.394531 -8.367188 10.050781 -8.578125 9.75 -8.734375 C 9.457031 -8.890625 8.972656 -9.125 8.296875 -9.4375 C 7.628906 -9.75 7.128906 -9.988281 6.796875 -10.15625 C 5.453125 -10.820312 4.410156 -11.648438 3.671875 -12.640625 C 2.929688 -13.640625 2.5625 -14.71875 2.5625 -15.875 C 2.5625 -17.875 3.300781 -19.507812 4.78125 -20.78125 C 6.257812 -22.050781 7.941406 -22.6875 9.828125 -22.6875 Z M 9.828125 -22.6875 "/></g></g></g><g fill="#050a30" fill-opacity="1"><g transform="translate(239.791036, 200.58069)"><g><path d="M 0.21875 -17.8125 L 0.21875 -22.28125 L 15.875 -22.28125 L 15.875 -17.8125 L 10.578125 -17.8125 L 10.578125 0 L 5.515625 0 L 5.515625 -17.8125 Z M 0.21875 -17.8125 "/></g></g></g><g fill="#050a30" fill-opacity="1"><g transform="translate(258.58304, 200.58069)"><g><path d="M 14.359375 -22.28125 L 14.359375 -17.8125 L 6.703125 -17.8125 L 6.703125 -13.390625 L 14.046875 -13.390625 L 14.046875 -8.9375 L 6.703125 -8.9375 L 6.703125 -4.453125 L 14.359375 -4.453125 L 14.359375 0 L 1.625 0 L 1.625 -22.28125 Z M 14.359375 -22.28125 "/></g></g></g><g fill="#050a30" fill-opacity="1"><g transform="translate(276.943047, 200.58069)"><g><path d="M 6.703125 -22.28125 L 6.703125 -4.453125 L 14.359375 -4.453125 L 14.359375 0 L 1.625 0 L 1.625 -22.28125 Z M 6.703125 -22.28125 "/></g></g></g><g fill="#050a30" fill-opacity="1"><g transform="translate(169.294021, 227.252623)"><g><path d="M 0.015625 -7.953125 L 1.21875 -7.953125 C 1.34375 -7.953125 1.445312 -7.921875 1.53125 -7.859375 C 1.613281 -7.796875 1.671875 -7.71875 1.703125 -7.625 L 3.578125 -2.765625 C 3.640625 -2.609375 3.695312 -2.4375 3.75 -2.25 C 3.8125 -2.0625 3.867188 -1.863281 3.921875 -1.65625 C 4.003906 -2.070312 4.109375 -2.441406 4.234375 -2.765625 L 6.09375 -7.625 C 6.132812 -7.707031 6.195312 -7.78125 6.28125 -7.84375 C 6.363281 -7.914062 6.46875 -7.953125 6.59375 -7.953125 L 7.78125 -7.953125 L 4.578125 0 L 3.234375 0 Z M 0.015625 -7.953125 "/></g></g></g><g fill="#050a30" fill-opacity="1"><g transform="translate(179.298376, 227.252623)"><g><path d="M 4.453125 -1.09375 C 4.785156 -1.09375 5.078125 -1.117188 5.328125 -1.171875 C 5.578125 -1.234375 5.8125 -1.320312 6.03125 -1.4375 L 6.03125 -2.875 L 5.03125 -2.875 C 4.9375 -2.875 4.863281 -2.898438 4.8125 -2.953125 C 4.757812 -3.003906 4.734375 -3.070312 4.734375 -3.15625 L 4.734375 -3.984375 L 7.375 -3.984375 L 7.375 -0.765625 C 7.175781 -0.617188 6.96875 -0.488281 6.75 -0.375 C 6.53125 -0.269531 6.296875 -0.179688 6.046875 -0.109375 C 5.796875 -0.046875 5.53125 0 5.25 0.03125 C 4.96875 0.0703125 4.664062 0.09375 4.34375 0.09375 C 3.757812 0.09375 3.222656 -0.00390625 2.734375 -0.203125 C 2.242188 -0.410156 1.820312 -0.691406 1.46875 -1.046875 C 1.113281 -1.410156 0.835938 -1.84375 0.640625 -2.34375 C 0.441406 -2.84375 0.34375 -3.382812 0.34375 -3.96875 C 0.34375 -4.570312 0.4375 -5.125 0.625 -5.625 C 0.820312 -6.125 1.097656 -6.550781 1.453125 -6.90625 C 1.816406 -7.269531 2.253906 -7.550781 2.765625 -7.75 C 3.273438 -7.945312 3.847656 -8.046875 4.484375 -8.046875 C 5.128906 -8.046875 5.6875 -7.945312 6.15625 -7.75 C 6.632812 -7.5625 7.039062 -7.3125 7.375 -7 L 6.9375 -6.328125 C 6.851562 -6.191406 6.742188 -6.125 6.609375 -6.125 C 6.515625 -6.125 6.425781 -6.15625 6.34375 -6.21875 C 6.21875 -6.28125 6.09375 -6.347656 5.96875 -6.421875 C 5.851562 -6.492188 5.71875 -6.554688 5.5625 -6.609375 C 5.414062 -6.660156 5.25 -6.703125 5.0625 -6.734375 C 4.882812 -6.765625 4.671875 -6.78125 4.421875 -6.78125 C 4.035156 -6.78125 3.679688 -6.710938 3.359375 -6.578125 C 3.046875 -6.453125 2.773438 -6.265625 2.546875 -6.015625 C 2.328125 -5.773438 2.15625 -5.476562 2.03125 -5.125 C 1.914062 -4.78125 1.859375 -4.394531 1.859375 -3.96875 C 1.859375 -3.507812 1.921875 -3.101562 2.046875 -2.75 C 2.171875 -2.394531 2.347656 -2.09375 2.578125 -1.84375 C 2.816406 -1.601562 3.09375 -1.414062 3.40625 -1.28125 C 3.726562 -1.15625 4.078125 -1.09375 4.453125 -1.09375 Z M 4.453125 -1.09375 "/></g></g></g><g fill="#050a30" fill-opacity="1"><g transform="translate(189.445633, 227.252623)"><g><path d="M 2.46875 0 L 0.984375 0 L 0.984375 -7.953125 L 2.46875 -7.953125 Z M 2.46875 0 "/></g></g></g><g fill="#050a30" fill-opacity="1"><g transform="translate(195.097136, 227.252623)"><g/></g></g><g fill="#050a30" fill-opacity="1"><g transform="translate(199.418608, 227.252623)"><g><path d="M 6.265625 -1.875 C 6.347656 -1.875 6.421875 -1.84375 6.484375 -1.78125 L 7.0625 -1.15625 C 6.738281 -0.75 6.34375 -0.4375 5.875 -0.21875 C 5.40625 -0.0078125 4.835938 0.09375 4.171875 0.09375 C 3.578125 0.09375 3.046875 -0.00390625 2.578125 -0.203125 C 2.109375 -0.410156 1.707031 -0.691406 1.375 -1.046875 C 1.039062 -1.410156 0.785156 -1.84375 0.609375 -2.34375 C 0.429688 -2.84375 0.34375 -3.382812 0.34375 -3.96875 C 0.34375 -4.570312 0.441406 -5.117188 0.640625 -5.609375 C 0.835938 -6.109375 1.113281 -6.535156 1.46875 -6.890625 C 1.832031 -7.253906 2.265625 -7.535156 2.765625 -7.734375 C 3.265625 -7.941406 3.816406 -8.046875 4.421875 -8.046875 C 5.015625 -8.046875 5.53125 -7.945312 5.96875 -7.75 C 6.414062 -7.5625 6.796875 -7.3125 7.109375 -7 L 6.609375 -6.3125 C 6.578125 -6.269531 6.535156 -6.234375 6.484375 -6.203125 C 6.441406 -6.171875 6.382812 -6.15625 6.3125 -6.15625 C 6.226562 -6.15625 6.140625 -6.1875 6.046875 -6.25 C 5.960938 -6.320312 5.851562 -6.394531 5.71875 -6.46875 C 5.582031 -6.539062 5.410156 -6.609375 5.203125 -6.671875 C 4.992188 -6.742188 4.726562 -6.78125 4.40625 -6.78125 C 4.03125 -6.78125 3.6875 -6.710938 3.375 -6.578125 C 3.0625 -6.453125 2.789062 -6.269531 2.5625 -6.03125 C 2.34375 -5.789062 2.171875 -5.492188 2.046875 -5.140625 C 1.921875 -4.796875 1.859375 -4.40625 1.859375 -3.96875 C 1.859375 -3.53125 1.921875 -3.132812 2.046875 -2.78125 C 2.171875 -2.4375 2.335938 -2.144531 2.546875 -1.90625 C 2.765625 -1.664062 3.019531 -1.484375 3.3125 -1.359375 C 3.613281 -1.234375 3.929688 -1.171875 4.265625 -1.171875 C 4.472656 -1.171875 4.65625 -1.179688 4.8125 -1.203125 C 4.976562 -1.222656 5.128906 -1.253906 5.265625 -1.296875 C 5.398438 -1.347656 5.53125 -1.410156 5.65625 -1.484375 C 5.78125 -1.554688 5.898438 -1.648438 6.015625 -1.765625 C 6.054688 -1.796875 6.097656 -1.820312 6.140625 -1.84375 C 6.179688 -1.863281 6.222656 -1.875 6.265625 -1.875 Z M 6.265625 -1.875 "/></g></g></g><g fill="#050a30" fill-opacity="1"><g transform="translate(208.988774, 227.252623)"><g><path d="M 7.796875 0 L 6.65625 0 C 6.519531 0 6.410156 -0.03125 6.328125 -0.09375 C 6.242188 -0.15625 6.1875 -0.234375 6.15625 -0.328125 L 5.5625 -1.953125 L 2.265625 -1.953125 L 1.671875 -0.328125 C 1.640625 -0.242188 1.582031 -0.164062 1.5 -0.09375 C 1.414062 -0.03125 1.3125 0 1.1875 0 L 0.03125 0 L 3.15625 -7.953125 L 4.671875 -7.953125 Z M 2.640625 -3 L 5.1875 -3 L 4.21875 -5.65625 C 4.164062 -5.769531 4.113281 -5.90625 4.0625 -6.0625 C 4.007812 -6.21875 3.957031 -6.390625 3.90625 -6.578125 C 3.851562 -6.390625 3.800781 -6.210938 3.75 -6.046875 C 3.707031 -5.890625 3.660156 -5.753906 3.609375 -5.640625 Z M 2.640625 -3 "/></g></g></g><g fill="#050a30" fill-opacity="1"><g transform="translate(218.993127, 227.252623)"><g><path d="M 4.796875 -3.296875 C 4.859375 -3.179688 4.914062 -3.0625 4.96875 -2.9375 C 5.019531 -2.8125 5.070312 -2.679688 5.125 -2.546875 C 5.175781 -2.679688 5.226562 -2.8125 5.28125 -2.9375 C 5.34375 -3.070312 5.40625 -3.195312 5.46875 -3.3125 L 7.8125 -7.71875 C 7.84375 -7.769531 7.875 -7.8125 7.90625 -7.84375 C 7.9375 -7.875 7.96875 -7.894531 8 -7.90625 C 8.039062 -7.925781 8.085938 -7.9375 8.140625 -7.9375 C 8.191406 -7.945312 8.25 -7.953125 8.3125 -7.953125 L 9.421875 -7.953125 L 9.421875 0 L 8.125 0 L 8.125 -5.140625 C 8.125 -5.234375 8.125 -5.335938 8.125 -5.453125 C 8.132812 -5.566406 8.144531 -5.679688 8.15625 -5.796875 L 5.75 -1.28125 C 5.695312 -1.1875 5.625 -1.109375 5.53125 -1.046875 C 5.445312 -0.992188 5.347656 -0.96875 5.234375 -0.96875 L 5.03125 -0.96875 C 4.90625 -0.96875 4.800781 -0.992188 4.71875 -1.046875 C 4.632812 -1.109375 4.5625 -1.1875 4.5 -1.28125 L 2.0625 -5.8125 C 2.082031 -5.6875 2.09375 -5.566406 2.09375 -5.453125 C 2.101562 -5.335938 2.109375 -5.234375 2.109375 -5.140625 L 2.109375 0 L 0.796875 0 L 0.796875 -7.953125 L 1.921875 -7.953125 C 1.984375 -7.953125 2.035156 -7.945312 2.078125 -7.9375 C 2.128906 -7.9375 2.175781 -7.925781 2.21875 -7.90625 C 2.257812 -7.894531 2.296875 -7.875 2.328125 -7.84375 C 2.359375 -7.8125 2.390625 -7.769531 2.421875 -7.71875 Z M 4.796875 -3.296875 "/></g></g></g><g fill="#050a30" fill-opacity="1"><g transform="translate(231.415734, 227.252623)"><g><path d="M 2.328125 -2.796875 L 2.328125 0 L 0.859375 0 L 0.859375 -7.953125 L 3.4375 -7.953125 C 3.96875 -7.953125 4.425781 -7.890625 4.8125 -7.765625 C 5.207031 -7.640625 5.53125 -7.460938 5.78125 -7.234375 C 6.039062 -7.015625 6.226562 -6.75 6.34375 -6.4375 C 6.46875 -6.125 6.53125 -5.785156 6.53125 -5.421875 C 6.53125 -5.035156 6.460938 -4.679688 6.328125 -4.359375 C 6.203125 -4.035156 6.007812 -3.757812 5.75 -3.53125 C 5.5 -3.300781 5.179688 -3.117188 4.796875 -2.984375 C 4.410156 -2.859375 3.957031 -2.796875 3.4375 -2.796875 Z M 2.328125 -3.953125 L 3.4375 -3.953125 C 3.707031 -3.953125 3.941406 -3.984375 4.140625 -4.046875 C 4.347656 -4.117188 4.515625 -4.21875 4.640625 -4.34375 C 4.773438 -4.46875 4.875 -4.617188 4.9375 -4.796875 C 5.007812 -4.984375 5.046875 -5.191406 5.046875 -5.421875 C 5.046875 -5.628906 5.007812 -5.816406 4.9375 -5.984375 C 4.875 -6.160156 4.773438 -6.304688 4.640625 -6.421875 C 4.515625 -6.546875 4.347656 -6.640625 4.140625 -6.703125 C 3.941406 -6.773438 3.707031 -6.8125 3.4375 -6.8125 L 2.328125 -6.8125 Z M 2.328125 -3.953125 "/></g></g></g><g fill="#050a30" fill-opacity="1"><g transform="translate(240.485771, 227.252623)"><g><path d="M 4 -1.1875 C 4.289062 -1.1875 4.546875 -1.234375 4.765625 -1.328125 C 4.992188 -1.429688 5.1875 -1.566406 5.34375 -1.734375 C 5.5 -1.910156 5.617188 -2.117188 5.703125 -2.359375 C 5.785156 -2.609375 5.828125 -2.882812 5.828125 -3.1875 L 5.828125 -7.953125 L 7.296875 -7.953125 L 7.296875 -3.1875 C 7.296875 -2.71875 7.21875 -2.28125 7.0625 -1.875 C 6.914062 -1.476562 6.695312 -1.132812 6.40625 -0.84375 C 6.125 -0.550781 5.78125 -0.320312 5.375 -0.15625 C 4.96875 0.0078125 4.507812 0.09375 4 0.09375 C 3.488281 0.09375 3.03125 0.0078125 2.625 -0.15625 C 2.21875 -0.320312 1.875 -0.550781 1.59375 -0.84375 C 1.3125 -1.132812 1.09375 -1.476562 0.9375 -1.875 C 0.78125 -2.28125 0.703125 -2.71875 0.703125 -3.1875 L 0.703125 -7.953125 L 2.1875 -7.953125 L 2.1875 -3.203125 C 2.1875 -2.890625 2.226562 -2.609375 2.3125 -2.359375 C 2.394531 -2.117188 2.515625 -1.910156 2.671875 -1.734375 C 2.828125 -1.566406 3.015625 -1.429688 3.234375 -1.328125 C 3.460938 -1.234375 3.71875 -1.1875 4 -1.1875 Z M 4 -1.1875 "/></g></g></g><g fill="#050a30" fill-opacity="1"><g transform="translate(250.687984, 227.252623)"><g><path d="M 5.0625 -6.5 C 5.019531 -6.425781 4.972656 -6.367188 4.921875 -6.328125 C 4.867188 -6.296875 4.804688 -6.28125 4.734375 -6.28125 C 4.660156 -6.28125 4.578125 -6.304688 4.484375 -6.359375 C 4.390625 -6.421875 4.28125 -6.488281 4.15625 -6.5625 C 4.03125 -6.632812 3.882812 -6.695312 3.71875 -6.75 C 3.550781 -6.8125 3.359375 -6.84375 3.140625 -6.84375 C 2.929688 -6.84375 2.75 -6.816406 2.59375 -6.765625 C 2.445312 -6.710938 2.320312 -6.640625 2.21875 -6.546875 C 2.113281 -6.460938 2.035156 -6.359375 1.984375 -6.234375 C 1.929688 -6.117188 1.90625 -5.984375 1.90625 -5.828125 C 1.90625 -5.648438 1.957031 -5.5 2.0625 -5.375 C 2.164062 -5.25 2.300781 -5.140625 2.46875 -5.046875 C 2.644531 -4.960938 2.84375 -4.882812 3.0625 -4.8125 C 3.28125 -4.738281 3.503906 -4.660156 3.734375 -4.578125 C 3.960938 -4.503906 4.1875 -4.414062 4.40625 -4.3125 C 4.625 -4.207031 4.820312 -4.070312 5 -3.90625 C 5.175781 -3.75 5.316406 -3.554688 5.421875 -3.328125 C 5.523438 -3.097656 5.578125 -2.816406 5.578125 -2.484375 C 5.578125 -2.128906 5.515625 -1.796875 5.390625 -1.484375 C 5.265625 -1.171875 5.082031 -0.894531 4.84375 -0.65625 C 4.613281 -0.425781 4.328125 -0.242188 3.984375 -0.109375 C 3.640625 0.0234375 3.25 0.09375 2.8125 0.09375 C 2.5625 0.09375 2.3125 0.0664062 2.0625 0.015625 C 1.8125 -0.0351562 1.570312 -0.101562 1.34375 -0.1875 C 1.125 -0.28125 0.914062 -0.390625 0.71875 -0.515625 C 0.519531 -0.648438 0.347656 -0.796875 0.203125 -0.953125 L 0.625 -1.671875 C 0.664062 -1.722656 0.710938 -1.765625 0.765625 -1.796875 C 0.828125 -1.828125 0.894531 -1.84375 0.96875 -1.84375 C 1.050781 -1.84375 1.144531 -1.804688 1.25 -1.734375 C 1.363281 -1.660156 1.492188 -1.578125 1.640625 -1.484375 C 1.785156 -1.390625 1.953125 -1.304688 2.140625 -1.234375 C 2.335938 -1.160156 2.578125 -1.125 2.859375 -1.125 C 3.273438 -1.125 3.597656 -1.222656 3.828125 -1.421875 C 4.066406 -1.617188 4.1875 -1.90625 4.1875 -2.28125 C 4.1875 -2.488281 4.128906 -2.65625 4.015625 -2.78125 C 3.910156 -2.914062 3.769531 -3.03125 3.59375 -3.125 C 3.425781 -3.21875 3.234375 -3.296875 3.015625 -3.359375 C 2.796875 -3.421875 2.570312 -3.488281 2.34375 -3.5625 C 2.113281 -3.632812 1.890625 -3.71875 1.671875 -3.8125 C 1.453125 -3.914062 1.253906 -4.050781 1.078125 -4.21875 C 0.910156 -4.382812 0.773438 -4.59375 0.671875 -4.84375 C 0.566406 -5.09375 0.515625 -5.398438 0.515625 -5.765625 C 0.515625 -6.046875 0.570312 -6.320312 0.6875 -6.59375 C 0.800781 -6.875 0.96875 -7.117188 1.1875 -7.328125 C 1.414062 -7.546875 1.691406 -7.71875 2.015625 -7.84375 C 2.335938 -7.976562 2.707031 -8.046875 3.125 -8.046875 C 3.59375 -8.046875 4.023438 -7.96875 4.421875 -7.8125 C 4.816406 -7.664062 5.148438 -7.460938 5.421875 -7.203125 Z M 5.0625 -6.5 "/></g></g></g></svg>