<svg xmlns="http://www.w3.org/2000/svg" xmlns:xlink="http://www.w3.org/1999/xlink" width="500" zoomAndPan="magnify" viewBox="0 0 375 374.999991" height="500" preserveAspectRatio="xMidYMid meet" version="1.0"><defs><g/><clipPath id="e857ab5ecb"><path d="M 90 127 L 137 127 L 137 176.296875 L 90 176.296875 Z M 90 127 " clip-rule="nonzero"/></clipPath><clipPath id="4f440007f5"><path d="M 135 120.046875 L 217 120.046875 L 217 171 L 135 171 Z M 135 120.046875 " clip-rule="nonzero"/></clipPath></defs><g clip-path="url(#e857ab5ecb)"><path fill="#61a6ab" d="M 90.539062 175.066406 L 129.335938 127.4375 L 136.351562 134.417969 L 107.046875 169.726562 L 107.871094 176.296875 Z M 90.539062 175.066406 " fill-opacity="1" fill-rule="evenodd"/></g><path fill="#61a6ab" d="M 284.105469 174.65625 L 258.515625 143.039062 L 253.5625 147.554688 L 273.375 170.960938 L 272.550781 175.476562 Z M 284.105469 174.65625 " fill-opacity="1" fill-rule="evenodd"/><path fill="#ffce6d" d="M 254.390625 138.113281 L 224.671875 174.242188 L 178.449219 173.832031 L 203.625 147.964844 Z M 254.390625 138.113281 " fill-opacity="1" fill-rule="evenodd"/><g clip-path="url(#4f440007f5)"><path fill="#ed5b2d" d="M 186.703125 137.292969 L 180.097656 134.417969 L 180.097656 129.078125 L 135.113281 120.457031 L 175.972656 170.136719 L 201.148438 143.859375 L 216.832031 140.988281 L 211.054688 135.238281 L 192.894531 131.542969 L 192.894531 120.046875 L 186.703125 120.046875 Z M 186.703125 137.292969 " fill-opacity="1" fill-rule="evenodd"/></g><path fill="#61a6ab" d="M 139.652344 166.851562 L 139.652344 157.410156 L 130.984375 157.410156 L 130.984375 166.851562 Z M 130.984375 155.769531 L 139.652344 155.769531 L 139.652344 146.734375 C 135.113281 147.144531 131.398438 150.839844 130.984375 155.769531 Z M 141.714844 155.769531 L 150.382812 155.769531 C 149.96875 151.25 146.257812 147.144531 141.714844 146.734375 Z M 150.382812 157.410156 L 141.714844 157.410156 L 141.714844 166.851562 L 150.382812 166.851562 Z M 150.382812 157.410156 " fill-opacity="1" fill-rule="evenodd"/><path fill="#61a6ab" d="M 249.847656 168.496094 L 249.847656 162.746094 L 244.484375 162.746094 L 244.484375 168.496094 Z M 244.484375 161.925781 L 249.847656 161.925781 L 249.847656 156.589844 C 246.960938 157 244.898438 159.050781 244.484375 161.925781 Z M 250.675781 161.925781 L 256.039062 161.925781 C 255.628906 159.050781 253.5625 157 250.675781 156.589844 Z M 256.039062 162.746094 L 250.675781 162.746094 L 250.675781 168.496094 L 256.039062 168.496094 Z M 256.039062 162.746094 " fill-opacity="1" fill-rule="evenodd"/><g fill="#ed5b2d" fill-opacity="1"><g transform="translate(82.105313, 218.203433)"><g><path d="M 10.53125 0 C 10.144531 0 9.882812 -0.191406 9.75 -0.578125 L 1.25 -28.46875 C 1.226562 -28.53125 1.21875 -28.613281 1.21875 -28.71875 C 1.21875 -29.082031 1.425781 -29.265625 1.84375 -29.265625 L 6.6875 -29.265625 C 7.082031 -29.265625 7.347656 -29.070312 7.484375 -28.6875 L 12.96875 -8.53125 C 12.988281 -8.414062 13.039062 -8.359375 13.125 -8.359375 C 13.207031 -8.359375 13.265625 -8.414062 13.296875 -8.53125 L 18.6875 -28.640625 C 18.832031 -29.054688 19.097656 -29.265625 19.484375 -29.265625 L 24.203125 -29.265625 C 24.453125 -29.265625 24.632812 -29.1875 24.75 -29.03125 C 24.863281 -28.882812 24.878906 -28.695312 24.796875 -28.46875 L 16.1875 -0.578125 C 16.039062 -0.191406 15.773438 0 15.390625 0 Z M 10.53125 0 "/></g></g></g><g fill="#ed5b2d" fill-opacity="1"><g transform="translate(110.746917, 218.203433)"><g><path d="M 12.84375 0.328125 C 10.6875 0.328125 8.785156 -0.101562 7.140625 -0.96875 C 5.503906 -1.832031 4.234375 -3.035156 3.328125 -4.578125 C 2.421875 -6.128906 1.96875 -7.921875 1.96875 -9.953125 L 1.96875 -19.3125 C 1.96875 -21.351562 2.421875 -23.148438 3.328125 -24.703125 C 4.234375 -26.265625 5.503906 -27.472656 7.140625 -28.328125 C 8.785156 -29.179688 10.6875 -29.609375 12.84375 -29.609375 C 14.957031 -29.609375 16.828125 -29.1875 18.453125 -28.34375 C 20.085938 -27.507812 21.359375 -26.375 22.265625 -24.9375 C 23.171875 -23.5 23.625 -21.90625 23.625 -20.15625 L 23.625 -20.0625 C 23.625 -19.59375 23.382812 -19.359375 22.90625 -19.359375 L 18.4375 -19.359375 C 18.21875 -19.359375 18.046875 -19.390625 17.921875 -19.453125 C 17.796875 -19.523438 17.734375 -19.601562 17.734375 -19.6875 L 17.734375 -19.984375 C 17.734375 -21.265625 17.285156 -22.34375 16.390625 -23.21875 C 15.492188 -24.101562 14.3125 -24.546875 12.84375 -24.546875 C 11.332031 -24.546875 10.125 -24.078125 9.21875 -23.140625 C 8.3125 -22.210938 7.859375 -20.992188 7.859375 -19.484375 L 7.859375 -9.78125 C 7.859375 -8.28125 8.34375 -7.0625 9.3125 -6.125 C 10.289062 -5.1875 11.535156 -4.71875 13.046875 -4.71875 C 14.492188 -4.71875 15.648438 -5.101562 16.515625 -5.875 C 17.378906 -6.644531 17.8125 -7.710938 17.8125 -9.078125 L 17.8125 -10.90625 C 17.8125 -11.070312 17.726562 -11.15625 17.5625 -11.15625 L 13.125 -11.15625 C 12.65625 -11.15625 12.421875 -11.394531 12.421875 -11.875 L 12.421875 -15.296875 C 12.421875 -15.773438 12.65625 -16.015625 13.125 -16.015625 L 22.90625 -16.015625 C 23.382812 -16.015625 23.625 -15.773438 23.625 -15.296875 L 23.625 -10 C 23.625 -7.875 23.175781 -6.03125 22.28125 -4.46875 C 21.394531 -2.90625 20.132812 -1.710938 18.5 -0.890625 C 16.875 -0.078125 14.988281 0.328125 12.84375 0.328125 Z M 12.84375 0.328125 "/></g></g></g><g fill="#ed5b2d" fill-opacity="1"><g transform="translate(138.761328, 218.203433)"><g><path d="M 3.265625 0 C 2.785156 0 2.546875 -0.234375 2.546875 -0.703125 L 2.546875 -28.5625 C 2.546875 -29.03125 2.785156 -29.265625 3.265625 -29.265625 L 7.734375 -29.265625 C 8.210938 -29.265625 8.453125 -29.03125 8.453125 -28.5625 L 8.453125 -0.703125 C 8.453125 -0.234375 8.210938 0 7.734375 0 Z M 3.265625 0 "/></g></g></g><g fill="#ed5b2d" fill-opacity="1"><g transform="translate(152.392265, 218.203433)"><g/></g></g><g fill="#ed5b2d" fill-opacity="1"><g transform="translate(163.389023, 218.203433)"><g><path d="M 18.109375 -28.5625 C 18.109375 -29.03125 18.34375 -29.265625 18.8125 -29.265625 L 23.296875 -29.265625 C 23.765625 -29.265625 24 -29.03125 24 -28.5625 L 24 -0.703125 C 24 -0.234375 23.765625 0 23.296875 0 L 18.8125 0 C 18.34375 0 18.109375 -0.234375 18.109375 -0.703125 L 18.109375 -12 C 18.109375 -12.164062 18.023438 -12.25 17.859375 -12.25 L 8.703125 -12.25 C 8.535156 -12.25 8.453125 -12.164062 8.453125 -12 L 8.453125 -0.703125 C 8.453125 -0.234375 8.210938 0 7.734375 0 L 3.265625 0 C 2.785156 0 2.546875 -0.234375 2.546875 -0.703125 L 2.546875 -28.5625 C 2.546875 -29.03125 2.785156 -29.265625 3.265625 -29.265625 L 7.734375 -29.265625 C 8.210938 -29.265625 8.453125 -29.03125 8.453125 -28.5625 L 8.453125 -17.5625 C 8.453125 -17.394531 8.535156 -17.3125 8.703125 -17.3125 L 17.859375 -17.3125 C 18.023438 -17.3125 18.109375 -17.394531 18.109375 -17.5625 Z M 18.109375 -28.5625 "/></g></g></g><g fill="#ed5b2d" fill-opacity="1"><g transform="translate(192.281502, 218.203433)"><g><path d="M 11.703125 0.328125 C 9.335938 0.328125 7.316406 -0.28125 5.640625 -1.5 C 3.972656 -2.726562 2.832031 -4.398438 2.21875 -6.515625 C 1.820312 -7.828125 1.625 -9.25 1.625 -10.78125 C 1.625 -12.488281 1.835938 -13.96875 2.265625 -15.21875 C 2.898438 -17.28125 4.046875 -18.894531 5.703125 -20.0625 C 7.359375 -21.238281 9.375 -21.828125 11.75 -21.828125 C 14.03125 -21.828125 15.984375 -21.238281 17.609375 -20.0625 C 19.242188 -18.894531 20.382812 -17.296875 21.03125 -15.265625 C 21.445312 -13.984375 21.65625 -12.519531 21.65625 -10.875 C 21.65625 -9.425781 21.472656 -8.015625 21.109375 -6.640625 C 20.472656 -4.472656 19.320312 -2.769531 17.65625 -1.53125 C 16 -0.289062 14.015625 0.328125 11.703125 0.328125 Z M 11.703125 -4.71875 C 12.597656 -4.71875 13.363281 -4.992188 14 -5.546875 C 14.644531 -6.109375 15.109375 -6.878906 15.390625 -7.859375 C 15.609375 -8.609375 15.71875 -9.582031 15.71875 -10.78125 C 15.71875 -11.957031 15.609375 -12.945312 15.390625 -13.75 C 15.109375 -14.695312 14.644531 -15.4375 14 -15.96875 C 13.363281 -16.5 12.570312 -16.765625 11.625 -16.765625 C 10.707031 -16.765625 9.925781 -16.5 9.28125 -15.96875 C 8.644531 -15.4375 8.1875 -14.695312 7.90625 -13.75 C 7.675781 -12.945312 7.5625 -11.957031 7.5625 -10.78125 C 7.5625 -9.644531 7.675781 -8.671875 7.90625 -7.859375 C 8.1875 -6.878906 8.648438 -6.109375 9.296875 -5.546875 C 9.953125 -4.992188 10.753906 -4.71875 11.703125 -4.71875 Z M 11.703125 -4.71875 "/></g></g></g><g fill="#ed5b2d" fill-opacity="1"><g transform="translate(218.205298, 218.203433)"><g><path d="M 10.75 0.296875 C 8.875 0.296875 7.238281 0.03125 5.84375 -0.5 C 4.457031 -1.03125 3.382812 -1.769531 2.625 -2.71875 C 1.875 -3.664062 1.5 -4.738281 1.5 -5.9375 L 1.5 -6.140625 C 1.5 -6.617188 1.738281 -6.859375 2.21875 -6.859375 L 6.4375 -6.859375 C 6.914062 -6.859375 7.15625 -6.773438 7.15625 -6.609375 L 7.15625 -6.3125 C 7.15625 -5.695312 7.488281 -5.171875 8.15625 -4.734375 C 8.820312 -4.304688 9.671875 -4.09375 10.703125 -4.09375 C 11.648438 -4.09375 12.414062 -4.273438 13 -4.640625 C 13.582031 -5.003906 13.875 -5.476562 13.875 -6.0625 C 13.875 -6.5625 13.625 -6.9375 13.125 -7.1875 C 12.625 -7.4375 11.800781 -7.703125 10.65625 -7.984375 C 9.289062 -8.347656 8.273438 -8.671875 7.609375 -8.953125 C 5.796875 -9.566406 4.359375 -10.316406 3.296875 -11.203125 C 2.242188 -12.097656 1.71875 -13.378906 1.71875 -15.046875 C 1.71875 -17.109375 2.523438 -18.742188 4.140625 -19.953125 C 5.753906 -21.171875 7.875 -21.78125 10.5 -21.78125 C 12.28125 -21.78125 13.847656 -21.492188 15.203125 -20.921875 C 16.554688 -20.347656 17.597656 -19.546875 18.328125 -18.515625 C 19.066406 -17.484375 19.4375 -16.316406 19.4375 -15.015625 C 19.4375 -14.867188 19.375 -14.75 19.25 -14.65625 C 19.125 -14.5625 18.953125 -14.515625 18.734375 -14.515625 L 14.640625 -14.515625 C 14.160156 -14.515625 13.921875 -14.597656 13.921875 -14.765625 L 13.921875 -15.015625 C 13.921875 -15.628906 13.613281 -16.144531 13 -16.5625 C 12.382812 -16.976562 11.5625 -17.1875 10.53125 -17.1875 C 9.613281 -17.1875 8.851562 -17.019531 8.25 -16.6875 C 7.65625 -16.351562 7.359375 -15.890625 7.359375 -15.296875 C 7.359375 -14.742188 7.644531 -14.328125 8.21875 -14.046875 C 8.789062 -13.765625 9.726562 -13.472656 11.03125 -13.171875 C 11.84375 -13.003906 12.625 -12.796875 13.375 -12.546875 C 15.382812 -11.960938 16.957031 -11.207031 18.09375 -10.28125 C 19.238281 -9.363281 19.8125 -8.023438 19.8125 -6.265625 C 19.8125 -4.203125 18.988281 -2.59375 17.34375 -1.4375 C 15.707031 -0.28125 13.507812 0.296875 10.75 0.296875 Z M 10.75 0.296875 "/></g></g></g><g fill="#ed5b2d" fill-opacity="1"><g transform="translate(241.87122, 218.203433)"><g><path d="M 14.515625 -17.484375 C 14.515625 -17.003906 14.273438 -16.765625 13.796875 -16.765625 L 10.03125 -16.765625 C 9.863281 -16.765625 9.78125 -16.679688 9.78125 -16.515625 L 9.78125 -7.859375 C 9.78125 -6.941406 9.96875 -6.265625 10.34375 -5.828125 C 10.71875 -5.398438 11.328125 -5.1875 12.171875 -5.1875 L 13.34375 -5.1875 C 13.8125 -5.1875 14.046875 -4.945312 14.046875 -4.46875 L 14.046875 -0.875 C 14.046875 -0.425781 13.8125 -0.175781 13.34375 -0.125 C 12.28125 -0.0703125 11.507812 -0.046875 11.03125 -0.046875 C 8.71875 -0.046875 6.988281 -0.4375 5.84375 -1.21875 C 4.707031 -2 4.125 -3.445312 4.09375 -5.5625 L 4.09375 -16.515625 C 4.09375 -16.679688 4.007812 -16.765625 3.84375 -16.765625 L 1.71875 -16.765625 C 1.238281 -16.765625 1 -17.003906 1 -17.484375 L 1 -20.78125 C 1 -21.25 1.238281 -21.484375 1.71875 -21.484375 L 3.84375 -21.484375 C 4.007812 -21.484375 4.09375 -21.570312 4.09375 -21.75 L 4.09375 -26.46875 C 4.09375 -26.9375 4.332031 -27.171875 4.8125 -27.171875 L 9.078125 -27.171875 C 9.546875 -27.171875 9.78125 -26.9375 9.78125 -26.46875 L 9.78125 -21.75 C 9.78125 -21.570312 9.863281 -21.484375 10.03125 -21.484375 L 13.796875 -21.484375 C 14.273438 -21.484375 14.515625 -21.25 14.515625 -20.78125 Z M 14.515625 -17.484375 "/></g></g></g><g fill="#ed5b2d" fill-opacity="1"><g transform="translate(260.394226, 218.203433)"><g><path d="M 12.546875 -4.640625 C 14.378906 -4.722656 15.785156 -5.363281 16.765625 -6.5625 C 16.929688 -6.757812 17.113281 -6.859375 17.3125 -6.859375 C 17.476562 -6.859375 17.628906 -6.785156 17.765625 -6.640625 L 20.15625 -4.34375 C 20.320312 -4.175781 20.40625 -4.007812 20.40625 -3.84375 C 20.40625 -3.644531 20.347656 -3.476562 20.234375 -3.34375 C 19.316406 -2.195312 18.140625 -1.296875 16.703125 -0.640625 C 15.265625 0.00390625 13.695312 0.328125 12 0.328125 C 9.4375 0.328125 7.3125 -0.320312 5.625 -1.625 C 3.9375 -2.9375 2.800781 -4.738281 2.21875 -7.03125 C 1.882812 -8.25 1.71875 -9.539062 1.71875 -10.90625 C 1.71875 -12.53125 1.867188 -13.898438 2.171875 -15.015625 C 2.734375 -17.078125 3.851562 -18.734375 5.53125 -19.984375 C 7.21875 -21.242188 9.222656 -21.875 11.546875 -21.875 C 14.273438 -21.875 16.441406 -21.0625 18.046875 -19.4375 C 19.648438 -17.820312 20.6875 -15.550781 21.15625 -12.625 C 21.269531 -11.707031 21.351562 -10.691406 21.40625 -9.578125 C 21.40625 -9.097656 21.171875 -8.859375 20.703125 -8.859375 L 7.859375 -8.859375 C 7.691406 -8.859375 7.609375 -8.773438 7.609375 -8.609375 C 7.691406 -8.023438 7.789062 -7.59375 7.90625 -7.3125 C 8.1875 -6.445312 8.734375 -5.785156 9.546875 -5.328125 C 10.367188 -4.867188 11.367188 -4.640625 12.546875 -4.640625 Z M 11.453125 -16.765625 C 10.566406 -16.765625 9.820312 -16.546875 9.21875 -16.109375 C 8.625 -15.679688 8.210938 -15.078125 7.984375 -14.296875 C 7.847656 -13.765625 7.765625 -13.414062 7.734375 -13.25 C 7.703125 -13.082031 7.769531 -13 7.9375 -13 L 15.046875 -13 C 15.191406 -13 15.265625 -13.054688 15.265625 -13.171875 C 15.265625 -13.472656 15.207031 -13.789062 15.09375 -14.125 C 14.84375 -14.9375 14.410156 -15.578125 13.796875 -16.046875 C 13.179688 -16.523438 12.398438 -16.765625 11.453125 -16.765625 Z M 11.453125 -16.765625 "/></g></g></g><g fill="#ed5b2d" fill-opacity="1"><g transform="translate(285.8999, 218.203433)"><g><path d="M 2.96875 0 C 2.5 0 2.265625 -0.234375 2.265625 -0.703125 L 2.265625 -28.5625 C 2.265625 -29.03125 2.5 -29.265625 2.96875 -29.265625 L 7.4375 -29.265625 C 7.914062 -29.265625 8.15625 -29.03125 8.15625 -28.5625 L 8.15625 -0.703125 C 8.15625 -0.234375 7.914062 0 7.4375 0 Z M 2.96875 0 "/></g></g></g><g fill="#61a6ab" fill-opacity="1"><g transform="translate(114.533589, 243.005817)"><g><path d="M 6.25 0 C 6.019531 0 5.875 -0.101562 5.8125 -0.3125 L 0.796875 -16.53125 C 0.785156 -16.5625 0.78125 -16.609375 0.78125 -16.671875 C 0.78125 -16.867188 0.890625 -16.96875 1.109375 -16.96875 L 3.3125 -16.96875 C 3.539062 -16.96875 3.6875 -16.863281 3.75 -16.65625 L 7.34375 -4.125 C 7.375 -4.050781 7.410156 -4.015625 7.453125 -4.015625 C 7.492188 -4.015625 7.519531 -4.050781 7.53125 -4.125 L 11.09375 -16.625 C 11.144531 -16.851562 11.289062 -16.96875 11.53125 -16.96875 L 13.6875 -16.96875 C 13.820312 -16.96875 13.914062 -16.925781 13.96875 -16.84375 C 14.03125 -16.757812 14.039062 -16.65625 14 -16.53125 L 8.921875 -0.3125 C 8.859375 -0.101562 8.710938 0 8.484375 0 Z M 6.25 0 "/></g></g></g><g fill="#61a6ab" fill-opacity="1"><g transform="translate(131.759597, 243.005817)"><g><path d="M 7.4375 0.1875 C 6.226562 0.1875 5.160156 -0.046875 4.234375 -0.515625 C 3.316406 -0.992188 2.609375 -1.671875 2.109375 -2.546875 C 1.609375 -3.421875 1.359375 -4.421875 1.359375 -5.546875 L 1.359375 -11.421875 C 1.359375 -12.566406 1.609375 -13.570312 2.109375 -14.4375 C 2.609375 -15.300781 3.316406 -15.96875 4.234375 -16.4375 C 5.160156 -16.914062 6.226562 -17.15625 7.4375 -17.15625 C 8.632812 -17.15625 9.6875 -16.921875 10.59375 -16.453125 C 11.507812 -15.984375 12.21875 -15.34375 12.71875 -14.53125 C 13.21875 -13.726562 13.46875 -12.816406 13.46875 -11.796875 L 13.46875 -11.703125 C 13.46875 -11.441406 13.34375 -11.3125 13.09375 -11.3125 L 11.078125 -11.3125 C 10.960938 -11.3125 10.867188 -11.332031 10.796875 -11.375 C 10.722656 -11.414062 10.6875 -11.46875 10.6875 -11.53125 L 10.6875 -11.734375 C 10.6875 -12.597656 10.390625 -13.3125 9.796875 -13.875 C 9.210938 -14.445312 8.425781 -14.734375 7.4375 -14.734375 C 6.457031 -14.734375 5.664062 -14.4375 5.0625 -13.84375 C 4.46875 -13.257812 4.171875 -12.484375 4.171875 -11.515625 L 4.171875 -5.453125 C 4.171875 -4.484375 4.484375 -3.703125 5.109375 -3.109375 C 5.742188 -2.523438 6.5625 -2.234375 7.5625 -2.234375 C 8.53125 -2.234375 9.289062 -2.484375 9.84375 -2.984375 C 10.40625 -3.492188 10.6875 -4.195312 10.6875 -5.09375 L 10.6875 -6.5625 C 10.6875 -6.664062 10.640625 -6.71875 10.546875 -6.71875 L 7.6875 -6.71875 C 7.425781 -6.71875 7.296875 -6.84375 7.296875 -7.09375 L 7.296875 -8.703125 C 7.296875 -8.960938 7.425781 -9.09375 7.6875 -9.09375 L 13.09375 -9.09375 C 13.34375 -9.09375 13.46875 -8.960938 13.46875 -8.703125 L 13.46875 -5.6875 C 13.46875 -3.832031 12.921875 -2.390625 11.828125 -1.359375 C 10.742188 -0.328125 9.28125 0.1875 7.4375 0.1875 Z M 7.4375 0.1875 "/></g></g></g><g fill="#61a6ab" fill-opacity="1"><g transform="translate(148.888699, 243.005817)"><g><path d="M 2.15625 0 C 1.894531 0 1.765625 -0.128906 1.765625 -0.390625 L 1.765625 -16.578125 C 1.765625 -16.835938 1.894531 -16.96875 2.15625 -16.96875 L 4.1875 -16.96875 C 4.445312 -16.96875 4.578125 -16.835938 4.578125 -16.578125 L 4.578125 -0.390625 C 4.578125 -0.128906 4.445312 0 4.1875 0 Z M 2.15625 0 "/></g></g></g><g fill="#61a6ab" fill-opacity="1"><g transform="translate(157.683553, 243.005817)"><g/></g></g><g fill="#61a6ab" fill-opacity="1"><g transform="translate(164.976298, 243.005817)"><g><path d="M 6.671875 0.1875 C 5.421875 0.1875 4.34375 -0.128906 3.4375 -0.765625 C 2.53125 -1.398438 1.898438 -2.257812 1.546875 -3.34375 C 1.285156 -4.070312 1.15625 -5.039062 1.15625 -6.25 C 1.15625 -7.414062 1.285156 -8.367188 1.546875 -9.109375 C 1.890625 -10.179688 2.515625 -11.023438 3.421875 -11.640625 C 4.335938 -12.265625 5.421875 -12.578125 6.671875 -12.578125 C 7.929688 -12.578125 9.023438 -12.257812 9.953125 -11.625 C 10.890625 -11 11.515625 -10.207031 11.828125 -9.25 C 11.878906 -9.113281 11.925781 -8.890625 11.96875 -8.578125 L 11.96875 -8.484375 C 11.96875 -8.304688 11.863281 -8.191406 11.65625 -8.140625 L 9.640625 -7.828125 L 9.546875 -7.828125 C 9.367188 -7.828125 9.253906 -7.925781 9.203125 -8.125 L 9.140625 -8.4375 C 9.023438 -8.914062 8.738281 -9.320312 8.28125 -9.65625 C 7.832031 -9.988281 7.296875 -10.15625 6.671875 -10.15625 C 6.054688 -10.15625 5.53125 -9.992188 5.09375 -9.671875 C 4.664062 -9.359375 4.378906 -8.929688 4.234375 -8.390625 C 4.078125 -7.867188 4 -7.148438 4 -6.234375 C 4 -5.335938 4.070312 -4.617188 4.21875 -4.078125 C 4.375 -3.503906 4.660156 -3.050781 5.078125 -2.71875 C 5.503906 -2.394531 6.035156 -2.234375 6.671875 -2.234375 C 7.273438 -2.234375 7.800781 -2.390625 8.25 -2.703125 C 8.695312 -3.015625 8.984375 -3.429688 9.109375 -3.953125 L 9.140625 -4.078125 C 9.148438 -4.148438 9.195312 -4.226562 9.28125 -4.3125 C 9.375 -4.394531 9.476562 -4.425781 9.59375 -4.40625 L 11.609375 -4.09375 C 11.816406 -4.039062 11.921875 -3.925781 11.921875 -3.75 C 11.921875 -3.65625 11.890625 -3.460938 11.828125 -3.171875 C 11.515625 -2.140625 10.890625 -1.320312 9.953125 -0.71875 C 9.023438 -0.113281 7.929688 0.1875 6.671875 0.1875 Z M 6.671875 0.1875 "/></g></g></g><g fill="#61a6ab" fill-opacity="1"><g transform="translate(180.288336, 243.005817)"><g><path d="M 6.234375 -12.578125 C 7.242188 -12.578125 8.140625 -12.398438 8.921875 -12.046875 C 9.710938 -11.691406 10.316406 -11.203125 10.734375 -10.578125 C 11.148438 -9.953125 11.359375 -9.242188 11.359375 -8.453125 L 11.359375 -0.390625 C 11.359375 -0.128906 11.234375 0 10.984375 0 L 8.9375 0 C 8.6875 0 8.5625 -0.128906 8.5625 -0.390625 L 8.5625 -1 C 8.5625 -1.0625 8.539062 -1.09375 8.5 -1.09375 C 8.46875 -1.101562 8.429688 -1.09375 8.390625 -1.0625 C 7.515625 -0.226562 6.347656 0.1875 4.890625 0.1875 C 3.703125 0.1875 2.722656 -0.113281 1.953125 -0.71875 C 1.179688 -1.332031 0.796875 -2.25 0.796875 -3.46875 C 0.796875 -4.726562 1.234375 -5.707031 2.109375 -6.40625 C 2.992188 -7.113281 4.238281 -7.46875 5.84375 -7.46875 L 8.40625 -7.46875 C 8.507812 -7.46875 8.5625 -7.515625 8.5625 -7.609375 L 8.5625 -8.171875 C 8.5625 -8.796875 8.367188 -9.28125 7.984375 -9.625 C 7.609375 -9.976562 7.046875 -10.15625 6.296875 -10.15625 C 5.734375 -10.15625 5.265625 -10.050781 4.890625 -9.84375 C 4.523438 -9.644531 4.273438 -9.367188 4.140625 -9.015625 C 4.078125 -8.785156 3.929688 -8.679688 3.703125 -8.703125 L 1.53125 -8.96875 C 1.394531 -8.976562 1.296875 -9.007812 1.234375 -9.0625 C 1.171875 -9.125 1.144531 -9.195312 1.15625 -9.28125 C 1.300781 -10.25 1.835938 -11.039062 2.765625 -11.65625 C 3.703125 -12.269531 4.859375 -12.578125 6.234375 -12.578125 Z M 5.671875 -2.03125 C 6.460938 -2.03125 7.140625 -2.238281 7.703125 -2.65625 C 8.273438 -3.082031 8.5625 -3.617188 8.5625 -4.265625 L 8.5625 -5.375 C 8.5625 -5.476562 8.507812 -5.53125 8.40625 -5.53125 L 6.390625 -5.53125 C 5.535156 -5.53125 4.859375 -5.367188 4.359375 -5.046875 C 3.859375 -4.722656 3.609375 -4.257812 3.609375 -3.65625 C 3.609375 -3.144531 3.800781 -2.742188 4.1875 -2.453125 C 4.582031 -2.171875 5.078125 -2.03125 5.671875 -2.03125 Z M 5.671875 -2.03125 "/></g></g></g><g fill="#61a6ab" fill-opacity="1"><g transform="translate(195.382324, 243.005817)"><g><path d="M 14.765625 -12.578125 C 16.003906 -12.578125 16.972656 -12.203125 17.671875 -11.453125 C 18.378906 -10.703125 18.734375 -9.65625 18.734375 -8.3125 L 18.734375 -0.390625 C 18.734375 -0.128906 18.601562 0 18.34375 0 L 16.328125 0 C 16.078125 0 15.953125 -0.128906 15.953125 -0.390625 L 15.953125 -7.734375 C 15.953125 -8.472656 15.753906 -9.0625 15.359375 -9.5 C 14.960938 -9.9375 14.429688 -10.15625 13.765625 -10.15625 C 13.097656 -10.15625 12.554688 -9.9375 12.140625 -9.5 C 11.722656 -9.0625 11.515625 -8.476562 11.515625 -7.75 L 11.515625 -0.390625 C 11.515625 -0.128906 11.382812 0 11.125 0 L 9.109375 0 C 8.847656 0 8.71875 -0.128906 8.71875 -0.390625 L 8.71875 -7.734375 C 8.71875 -8.472656 8.515625 -9.0625 8.109375 -9.5 C 7.710938 -9.9375 7.179688 -10.15625 6.515625 -10.15625 C 5.898438 -10.15625 5.394531 -9.976562 5 -9.625 C 4.601562 -9.269531 4.375 -8.785156 4.3125 -8.171875 L 4.3125 -0.390625 C 4.3125 -0.128906 4.179688 0 3.921875 0 L 1.890625 0 C 1.628906 0 1.5 -0.128906 1.5 -0.390625 L 1.5 -12 C 1.5 -12.257812 1.628906 -12.390625 1.890625 -12.390625 L 3.921875 -12.390625 C 4.179688 -12.390625 4.3125 -12.257812 4.3125 -12 L 4.3125 -11.34375 C 4.3125 -11.28125 4.332031 -11.238281 4.375 -11.21875 C 4.414062 -11.207031 4.453125 -11.234375 4.484375 -11.296875 C 5.179688 -12.148438 6.195312 -12.578125 7.53125 -12.578125 C 8.320312 -12.578125 9.015625 -12.414062 9.609375 -12.09375 C 10.203125 -11.78125 10.660156 -11.320312 10.984375 -10.71875 C 11.015625 -10.664062 11.046875 -10.640625 11.078125 -10.640625 C 11.117188 -10.640625 11.148438 -10.671875 11.171875 -10.734375 C 11.546875 -11.347656 12.046875 -11.804688 12.671875 -12.109375 C 13.304688 -12.421875 14.003906 -12.578125 14.765625 -12.578125 Z M 14.765625 -12.578125 "/></g></g></g><g fill="#61a6ab" fill-opacity="1"><g transform="translate(217.914146, 243.005817)"><g><path d="M 12.015625 -9.1875 C 12.304688 -8.300781 12.453125 -7.289062 12.453125 -6.15625 C 12.453125 -5.007812 12.316406 -4.023438 12.046875 -3.203125 C 11.691406 -2.128906 11.117188 -1.296875 10.328125 -0.703125 C 9.535156 -0.109375 8.550781 0.1875 7.375 0.1875 C 6.238281 0.1875 5.316406 -0.207031 4.609375 -1 C 4.578125 -1.039062 4.539062 -1.054688 4.5 -1.046875 C 4.457031 -1.046875 4.4375 -1.007812 4.4375 -0.9375 L 4.4375 4.1875 C 4.4375 4.445312 4.304688 4.578125 4.046875 4.578125 L 2.015625 4.578125 C 1.753906 4.578125 1.625 4.445312 1.625 4.1875 L 1.625 -12 C 1.625 -12.257812 1.753906 -12.390625 2.015625 -12.390625 L 4.046875 -12.390625 C 4.304688 -12.390625 4.4375 -12.257812 4.4375 -12 L 4.4375 -11.359375 C 4.4375 -11.296875 4.457031 -11.253906 4.5 -11.234375 C 4.539062 -11.222656 4.578125 -11.25 4.609375 -11.3125 C 5.296875 -12.15625 6.21875 -12.578125 7.375 -12.578125 C 8.5 -12.578125 9.460938 -12.273438 10.265625 -11.671875 C 11.078125 -11.066406 11.660156 -10.238281 12.015625 -9.1875 Z M 8.84375 -3.25 C 9.3125 -3.957031 9.546875 -4.941406 9.546875 -6.203125 C 9.546875 -7.367188 9.351562 -8.289062 8.96875 -8.96875 C 8.550781 -9.738281 7.875 -10.125 6.9375 -10.125 C 6.125 -10.125 5.492188 -9.742188 5.046875 -8.984375 C 4.671875 -8.359375 4.484375 -7.425781 4.484375 -6.1875 C 4.484375 -4.925781 4.6875 -3.960938 5.09375 -3.296875 C 5.53125 -2.585938 6.132812 -2.234375 6.90625 -2.234375 C 7.75 -2.234375 8.394531 -2.570312 8.84375 -3.25 Z M 8.84375 -3.25 "/></g></g></g><g fill="#61a6ab" fill-opacity="1"><g transform="translate(233.807644, 243.005817)"><g><path d="M 8.828125 -12 C 8.828125 -12.257812 8.953125 -12.390625 9.203125 -12.390625 L 11.21875 -12.390625 C 11.476562 -12.390625 11.609375 -12.257812 11.609375 -12 L 11.609375 -0.390625 C 11.609375 -0.128906 11.476562 0 11.21875 0 L 9.203125 0 C 8.953125 0 8.828125 -0.128906 8.828125 -0.390625 L 8.828125 -1.015625 C 8.828125 -1.078125 8.804688 -1.113281 8.765625 -1.125 C 8.722656 -1.144531 8.6875 -1.125 8.65625 -1.0625 C 8.007812 -0.238281 7.019531 0.171875 5.6875 0.171875 C 4.46875 0.171875 3.441406 -0.179688 2.609375 -0.890625 C 1.773438 -1.609375 1.359375 -2.617188 1.359375 -3.921875 L 1.359375 -12 C 1.359375 -12.257812 1.488281 -12.390625 1.75 -12.390625 L 3.78125 -12.390625 C 4.039062 -12.390625 4.171875 -12.257812 4.171875 -12 L 4.171875 -4.71875 C 4.171875 -3.96875 4.367188 -3.363281 4.765625 -2.90625 C 5.160156 -2.457031 5.710938 -2.234375 6.421875 -2.234375 C 7.148438 -2.234375 7.734375 -2.457031 8.171875 -2.90625 C 8.609375 -3.363281 8.828125 -3.96875 8.828125 -4.71875 Z M 8.828125 -12 "/></g></g></g><g fill="#61a6ab" fill-opacity="1"><g transform="translate(249.361955, 243.005817)"><g><path d="M 6.125 0.140625 C 5.113281 0.140625 4.222656 -0.00390625 3.453125 -0.296875 C 2.679688 -0.597656 2.085938 -1.007812 1.671875 -1.53125 C 1.253906 -2.0625 1.046875 -2.648438 1.046875 -3.296875 L 1.046875 -3.421875 C 1.046875 -3.679688 1.175781 -3.8125 1.4375 -3.8125 L 3.375 -3.8125 C 3.625 -3.8125 3.75 -3.753906 3.75 -3.640625 L 3.75 -3.46875 C 3.75 -3.0625 3.972656 -2.707031 4.421875 -2.40625 C 4.867188 -2.113281 5.429688 -1.96875 6.109375 -1.96875 C 6.753906 -1.96875 7.273438 -2.097656 7.671875 -2.359375 C 8.078125 -2.628906 8.28125 -2.96875 8.28125 -3.375 C 8.28125 -3.738281 8.113281 -4.015625 7.78125 -4.203125 C 7.457031 -4.390625 6.925781 -4.585938 6.1875 -4.796875 L 5.265625 -5.09375 C 4.429688 -5.332031 3.734375 -5.585938 3.171875 -5.859375 C 2.609375 -6.140625 2.128906 -6.515625 1.734375 -6.984375 C 1.347656 -7.460938 1.15625 -8.078125 1.15625 -8.828125 C 1.15625 -9.953125 1.597656 -10.847656 2.484375 -11.515625 C 3.367188 -12.191406 4.535156 -12.53125 5.984375 -12.53125 C 6.972656 -12.53125 7.835938 -12.367188 8.578125 -12.046875 C 9.316406 -11.734375 9.890625 -11.296875 10.296875 -10.734375 C 10.710938 -10.179688 10.921875 -9.550781 10.921875 -8.84375 C 10.921875 -8.757812 10.882812 -8.691406 10.8125 -8.640625 C 10.75 -8.585938 10.660156 -8.5625 10.546875 -8.5625 L 8.671875 -8.5625 C 8.410156 -8.5625 8.28125 -8.609375 8.28125 -8.703125 L 8.28125 -8.84375 C 8.28125 -9.257812 8.070312 -9.609375 7.65625 -9.890625 C 7.25 -10.179688 6.691406 -10.328125 5.984375 -10.328125 C 5.359375 -10.328125 4.847656 -10.207031 4.453125 -9.96875 C 4.054688 -9.738281 3.859375 -9.410156 3.859375 -8.984375 C 3.859375 -8.597656 4.039062 -8.300781 4.40625 -8.09375 C 4.78125 -7.894531 5.40625 -7.675781 6.28125 -7.4375 L 6.828125 -7.296875 C 7.703125 -7.035156 8.429688 -6.773438 9.015625 -6.515625 C 9.597656 -6.253906 10.085938 -5.878906 10.484375 -5.390625 C 10.890625 -4.910156 11.09375 -4.289062 11.09375 -3.53125 C 11.09375 -2.382812 10.640625 -1.484375 9.734375 -0.828125 C 8.835938 -0.179688 7.632812 0.140625 6.125 0.140625 Z M 6.125 0.140625 "/></g></g></g></svg>